<?xml version="1.0" encoding="UTF-8" standalone="no"?>
<!DOCTYPE svg PUBLIC "-//W3C//DTD SVG 1.1//EN"
 "http://www.w3.org/Graphics/SVG/1.1/DTD/svg11.dtd">
<!-- Generated by graphviz version 2.38.0 (20140413.2041)
 -->
<!-- Title: es.ull.passengers.Passenger Pages: 1 -->
<svg width="250pt" height="441pt"
 viewBox="0.00 0.00 250.00 441.00" xmlns="http://www.w3.org/2000/svg" xmlns:xlink="http://www.w3.org/1999/xlink">
<g id="graph0" class="graph" transform="scale(1 1) rotate(0) translate(4 437)">
<title>es.ull.passengers.Passenger</title>
<polygon fill="white" stroke="none" points="-4,4 -4,-437 246,-437 246,4 -4,4"/>
<!-- Node1 -->
<g id="node1" class="node"><title>Node1</title>
<polygon fill="#bfbfbf" stroke="black" points="81.5,-0.5 81.5,-156.5 224.5,-156.5 224.5,-0.5 81.5,-0.5"/>
<text text-anchor="middle" x="153" y="-144.5" font-family="Helvetica,sans-Serif" font-size="10.00">es.ull.passengers.Passenger</text>
<polyline fill="none" stroke="black" points="81.5,-137.5 224.5,-137.5 "/>
<text text-anchor="start" x="89.5" y="-125.5" font-family="Helvetica,sans-Serif" font-size="10.00">&#45; identifier</text>
<text text-anchor="start" x="89.5" y="-114.5" font-family="Helvetica,sans-Serif" font-size="10.00">&#45; name</text>
<text text-anchor="start" x="89.5" y="-103.5" font-family="Helvetica,sans-Serif" font-size="10.00">&#45; countryCode</text>
<polyline fill="none" stroke="black" points="81.5,-96.5 224.5,-96.5 "/>
<text text-anchor="start" x="89.5" y="-84.5" font-family="Helvetica,sans-Serif" font-size="10.00">+ Passenger()</text>
<text text-anchor="start" x="89.5" y="-73.5" font-family="Helvetica,sans-Serif" font-size="10.00">+ getIdentifier()</text>
<text text-anchor="start" x="89.5" y="-62.5" font-family="Helvetica,sans-Serif" font-size="10.00">+ getName()</text>
<text text-anchor="start" x="89.5" y="-51.5" font-family="Helvetica,sans-Serif" font-size="10.00">+ getCountryCode()</text>
<text text-anchor="start" x="89.5" y="-40.5" font-family="Helvetica,sans-Serif" font-size="10.00">+ getFlight()</text>
<text text-anchor="start" x="89.5" y="-29.5" font-family="Helvetica,sans-Serif" font-size="10.00">+ joinFlight()</text>
<text text-anchor="start" x="89.5" y="-18.5" font-family="Helvetica,sans-Serif" font-size="10.00">+ setFlight()</text>
<text text-anchor="start" x="89.5" y="-7.5" font-family="Helvetica,sans-Serif" font-size="10.00">+ toString()</text>
</g>
<!-- Node2 -->
<g id="node2" class="node"><title>Node2</title>
<g id="a_node2"><a xlink:href="classes_1_1ull_1_1flights_1_1_flight.html" target="_top" xlink:title="Class which represents a Flight. ">
<polygon fill="white" stroke="black" points="82,-204.5 82,-327.5 224,-327.5 224,-204.5 82,-204.5"/>
<text text-anchor="middle" x="153" y="-315.5" font-family="Helvetica,sans-Serif" font-size="10.00">es.ull.flights.Flight</text>
<polyline fill="none" stroke="black" points="82,-308.5 224,-308.5 "/>
<text text-anchor="start" x="90" y="-296.5" font-family="Helvetica,sans-Serif" font-size="10.00">&#45; flightNumber</text>
<text text-anchor="start" x="90" y="-285.5" font-family="Helvetica,sans-Serif" font-size="10.00">&#45; seats</text>
<text text-anchor="start" x="90" y="-274.5" font-family="Helvetica,sans-Serif" font-size="10.00">&#45; flightNumberRegex</text>
<polyline fill="none" stroke="black" points="82,-267.5 224,-267.5 "/>
<text text-anchor="start" x="90" y="-255.5" font-family="Helvetica,sans-Serif" font-size="10.00">+ Flight()</text>
<text text-anchor="start" x="90" y="-244.5" font-family="Helvetica,sans-Serif" font-size="10.00">+ getFlightNumber()</text>
<text text-anchor="start" x="90" y="-233.5" font-family="Helvetica,sans-Serif" font-size="10.00">+ getNumberOfPassengers()</text>
<text text-anchor="start" x="90" y="-222.5" font-family="Helvetica,sans-Serif" font-size="10.00">+ addPassenger()</text>
<text text-anchor="start" x="90" y="-211.5" font-family="Helvetica,sans-Serif" font-size="10.00">+ removePassenger()</text>
</a>
</g>
</g>
<!-- Node2&#45;&gt;Node1 -->
<g id="edge1" class="edge"><title>Node2&#45;&gt;Node1</title>
<path fill="none" stroke="#404040" d="M153,-204.26C153,-192.849 153,-180.7 153,-168.633"/>
<polygon fill="none" stroke="#404040" points="153,-168.624 149,-162.624 153,-156.624 157,-162.624 153,-168.624"/>
<text text-anchor="middle" x="167" y="-178" font-family="Helvetica,sans-Serif" font-size="10.00"> &#45;flight</text>
</g>
<!-- Node3 -->
<g id="node3" class="node"><title>Node3</title>
<polygon fill="white" stroke="#bfbfbf" points="0,-375.5 0,-432.5 176,-432.5 176,-375.5 0,-375.5"/>
<text text-anchor="middle" x="88" y="-420.5" font-family="Helvetica,sans-Serif" font-size="10.00">Set&lt; es.ull.passengers.Passenger &gt;</text>
<polyline fill="none" stroke="#bfbfbf" points="0,-413.5 176,-413.5 "/>
<text text-anchor="middle" x="88" y="-401.5" font-family="Helvetica,sans-Serif" font-size="10.00"> </text>
<polyline fill="none" stroke="#bfbfbf" points="0,-394.5 176,-394.5 "/>
<text text-anchor="middle" x="88" y="-382.5" font-family="Helvetica,sans-Serif" font-size="10.00"> </text>
</g>
<!-- Node3&#45;&gt;Node2 -->
<g id="edge2" class="edge"><title>Node3&#45;&gt;Node2</title>
<path fill="none" stroke="#404040" d="M101.154,-375.478C106.312,-364.685 112.494,-351.752 118.761,-338.638"/>
<polygon fill="none" stroke="#404040" points="118.851,-338.45 117.829,-331.312 124.026,-327.623 125.047,-334.762 118.851,-338.45"/>
<text text-anchor="middle" x="143.5" y="-349" font-family="Helvetica,sans-Serif" font-size="10.00"> &#45;passengers</text>
</g>
<!-- Node4 -->
<g id="node4" class="node"><title>Node4</title>
<polygon fill="white" stroke="#bfbfbf" points="194,-375.5 194,-432.5 242,-432.5 242,-375.5 194,-375.5"/>
<text text-anchor="middle" x="218" y="-420.5" font-family="Helvetica,sans-Serif" font-size="10.00">Pattern</text>
<polyline fill="none" stroke="#bfbfbf" points="194,-413.5 242,-413.5 "/>
<text text-anchor="middle" x="218" y="-401.5" font-family="Helvetica,sans-Serif" font-size="10.00"> </text>
<polyline fill="none" stroke="#bfbfbf" points="194,-394.5 242,-394.5 "/>
<text text-anchor="middle" x="218" y="-382.5" font-family="Helvetica,sans-Serif" font-size="10.00"> </text>
</g>
<!-- Node4&#45;&gt;Node2 -->
<g id="edge3" class="edge"><title>Node4&#45;&gt;Node2</title>
<path fill="none" stroke="#404040" d="M204.846,-375.478C199.688,-364.685 193.506,-351.752 187.239,-338.638"/>
<polygon fill="none" stroke="#404040" points="187.149,-338.45 180.953,-334.762 181.974,-327.623 188.171,-331.312 187.149,-338.45"/>
<text text-anchor="middle" x="213.5" y="-349" font-family="Helvetica,sans-Serif" font-size="10.00"> &#45;pattern</text>
</g>
</g>
</svg>
