<?xml version="1.0" encoding="UTF-8" standalone="no"?>
<!DOCTYPE svg PUBLIC "-//W3C//DTD SVG 1.1//EN"
 "http://www.w3.org/Graphics/SVG/1.1/DTD/svg11.dtd">
<!-- Generated by graphviz version 2.38.0 (20140413.2041)
 -->
<!-- Title: es.ull.flights.Flight Pages: 1 -->
<svg width="250pt" height="237pt"
 viewBox="0.00 0.00 250.00 237.00" xmlns="http://www.w3.org/2000/svg" xmlns:xlink="http://www.w3.org/1999/xlink">
<g id="graph0" class="graph" transform="scale(1 1) rotate(0) translate(4 233)">
<title>es.ull.flights.Flight</title>
<polygon fill="white" stroke="none" points="-4,4 -4,-233 246,-233 246,4 -4,4"/>
<!-- Node1 -->
<g id="node1" class="node"><title>Node1</title>
<polygon fill="#bfbfbf" stroke="black" points="82,-0.5 82,-123.5 224,-123.5 224,-0.5 82,-0.5"/>
<text text-anchor="middle" x="153" y="-111.5" font-family="Helvetica,sans-Serif" font-size="10.00">es.ull.flights.Flight</text>
<polyline fill="none" stroke="black" points="82,-104.5 224,-104.5 "/>
<text text-anchor="start" x="90" y="-92.5" font-family="Helvetica,sans-Serif" font-size="10.00">&#45; flightNumber</text>
<text text-anchor="start" x="90" y="-81.5" font-family="Helvetica,sans-Serif" font-size="10.00">&#45; seats</text>
<text text-anchor="start" x="90" y="-70.5" font-family="Helvetica,sans-Serif" font-size="10.00">&#45; flightNumberRegex</text>
<polyline fill="none" stroke="black" points="82,-63.5 224,-63.5 "/>
<text text-anchor="start" x="90" y="-51.5" font-family="Helvetica,sans-Serif" font-size="10.00">+ Flight()</text>
<text text-anchor="start" x="90" y="-40.5" font-family="Helvetica,sans-Serif" font-size="10.00">+ getFlightNumber()</text>
<text text-anchor="start" x="90" y="-29.5" font-family="Helvetica,sans-Serif" font-size="10.00">+ getNumberOfPassengers()</text>
<text text-anchor="start" x="90" y="-18.5" font-family="Helvetica,sans-Serif" font-size="10.00">+ addPassenger()</text>
<text text-anchor="start" x="90" y="-7.5" font-family="Helvetica,sans-Serif" font-size="10.00">+ removePassenger()</text>
</g>
<!-- Node2 -->
<g id="node2" class="node"><title>Node2</title>
<polygon fill="white" stroke="#bfbfbf" points="0,-171.5 0,-228.5 176,-228.5 176,-171.5 0,-171.5"/>
<text text-anchor="middle" x="88" y="-216.5" font-family="Helvetica,sans-Serif" font-size="10.00">Set&lt; es.ull.passengers.Passenger &gt;</text>
<polyline fill="none" stroke="#bfbfbf" points="0,-209.5 176,-209.5 "/>
<text text-anchor="middle" x="88" y="-197.5" font-family="Helvetica,sans-Serif" font-size="10.00"> </text>
<polyline fill="none" stroke="#bfbfbf" points="0,-190.5 176,-190.5 "/>
<text text-anchor="middle" x="88" y="-178.5" font-family="Helvetica,sans-Serif" font-size="10.00"> </text>
</g>
<!-- Node2&#45;&gt;Node1 -->
<g id="edge1" class="edge"><title>Node2&#45;&gt;Node1</title>
<path fill="none" stroke="#404040" d="M101.154,-171.478C106.312,-160.685 112.494,-147.752 118.761,-134.638"/>
<polygon fill="none" stroke="#404040" points="118.851,-134.45 117.829,-127.312 124.026,-123.623 125.047,-130.762 118.851,-134.45"/>
<text text-anchor="middle" x="143.5" y="-145" font-family="Helvetica,sans-Serif" font-size="10.00"> &#45;passengers</text>
</g>
<!-- Node3 -->
<g id="node3" class="node"><title>Node3</title>
<polygon fill="white" stroke="#bfbfbf" points="194,-171.5 194,-228.5 242,-228.5 242,-171.5 194,-171.5"/>
<text text-anchor="middle" x="218" y="-216.5" font-family="Helvetica,sans-Serif" font-size="10.00">Pattern</text>
<polyline fill="none" stroke="#bfbfbf" points="194,-209.5 242,-209.5 "/>
<text text-anchor="middle" x="218" y="-197.5" font-family="Helvetica,sans-Serif" font-size="10.00"> </text>
<polyline fill="none" stroke="#bfbfbf" points="194,-190.5 242,-190.5 "/>
<text text-anchor="middle" x="218" y="-178.5" font-family="Helvetica,sans-Serif" font-size="10.00"> </text>
</g>
<!-- Node3&#45;&gt;Node1 -->
<g id="edge2" class="edge"><title>Node3&#45;&gt;Node1</title>
<path fill="none" stroke="#404040" d="M204.846,-171.478C199.688,-160.685 193.506,-147.752 187.239,-134.638"/>
<polygon fill="none" stroke="#404040" points="187.149,-134.45 180.953,-130.762 181.974,-123.623 188.171,-127.312 187.149,-134.45"/>
<text text-anchor="middle" x="213.5" y="-145" font-family="Helvetica,sans-Serif" font-size="10.00"> &#45;pattern</text>
</g>
</g>
</svg>
